<svg width="24" height="24" viewBox="0 0 24 24" fill="none" xmlns="http://www.w3.org/2000/svg">
<path d="M13.44 8.829C11.128 7.459 9.689 7.146 9.628 7.133C9.129 7.027 8.63 7.316 8.472 7.801C8.452 7.86 7.999 9.279 7.999 12C7.999 14.721 8.452 16.14 8.472 16.199C8.628 16.688 9.14 16.973 9.628 16.867C9.689 16.854 11.128 16.541 13.44 15.171C15.606 13.888 16.574 12.858 16.747 12.665C17.084 12.286 17.084 11.714 16.747 11.335C16.574 11.142 15.606 10.112 13.44 8.829ZM12.42 13.451C11.482 14.007 10.718 14.363 10.172 14.584C10.083 13.987 9.999 13.124 9.999 12.001C9.999 10.878 10.083 10.014 10.172 9.418C10.718 9.639 11.482 9.995 12.42 10.55C13.383 11.12 14.07 11.627 14.526 12.001C14.07 12.375 13.382 12.88 12.42 13.451ZM11.999 1C4.29 1 1 4.29 1 12C1 19.71 4.29 23 12 23C19.71 23 23 19.71 23 12C23 4.29 19.71 1 12 1H11.999ZM11.999 21C5.438 21 2.999 18.561 2.999 12C2.999 5.439 5.439 3 12 3C18.561 3 21 5.439 21 12C21 18.561 18.561 21 12 21H11.999Z" fill="#00E5C4"/>
</svg>
