<svg width="24" height="24" viewBox="0 0 24 24" fill="none" xmlns="http://www.w3.org/2000/svg">
<g clip-path="url(#clip0_2158_8)">
<path d="M23.061 1.46103C23.0415 1.17603 22.8112 0.951034 22.5262 0.938284H22.5248C17.919 0.736534 13.8338 2.71953 10.182 6.93753H3C2.7375 6.93753 2.51775 7.11678 2.4555 7.35978L2.45475 7.36353L0.95475 13.3635C0.94425 13.404 0.93825 13.4513 0.93825 13.4993C0.93825 13.8098 1.1895 14.0618 1.50075 14.0625H5.47725C5.23125 14.5335 4.986 15.0068 4.7445 15.504C4.70925 15.576 4.68825 15.6608 4.68825 15.75C4.68825 15.9053 4.75125 16.0463 4.85325 16.149L7.85325 19.149C7.95525 19.2503 8.0955 19.3133 8.25075 19.3133C8.34375 19.3133 8.43075 19.2908 8.508 19.2518L8.505 19.2533C8.986 19.0098 9.46375 18.7625 9.93825 18.5115V22.6185C9.93825 22.6193 9.93825 22.6193 9.93825 22.62C9.93825 22.9298 10.1895 23.181 10.4992 23.181C10.5 23.181 10.5 23.181 10.5008 23.181C10.5495 23.181 10.596 23.175 10.641 23.1638L10.6365 23.1645L16.6365 21.6645C16.8832 21.6008 17.0625 21.3803 17.0625 21.1185V13.9298C20.8898 10.7708 23.4337 6.84303 23.061 1.46253V1.46103ZM2.22075 12.9375L3.4395 8.06253H9.25875C8.1615 9.47928 7.11075 11.073 6.183 12.744L6.08475 12.9375H2.22075ZM15.9375 20.6775L11.0625 21.8963V17.898C12.945 16.8683 14.538 15.8453 16.056 14.7248L15.9375 14.808V20.6775ZM8.3595 18.063L5.9325 15.636C10.4467 6.50103 15.6728 2.04903 21.888 2.04903L21.966 2.04978C22.212 9.79653 15.6353 14.3393 8.3595 18.063ZM17.25 4.68753C16.1107 4.68753 15.1875 5.61078 15.1875 6.75003C15.1875 7.88928 16.1107 8.81253 17.25 8.81253C18.3893 8.81253 19.3125 7.88928 19.3125 6.75003C19.311 5.61153 18.3885 4.68903 17.25 4.68753ZM17.25 7.68753C16.7325 7.68753 16.3125 7.26753 16.3125 6.75003C16.3125 6.23253 16.7325 5.81253 17.25 5.81253C17.7675 5.81253 18.1875 6.23253 18.1875 6.75003C18.1867 7.26753 17.7675 7.68678 17.25 7.68753ZM3.36 18.189L3.003 18.1875C2.73375 18.2415 2.56275 18.327 2.47725 18.5408L0.97725 22.2908C0.95175 22.3523 0.9375 22.4243 0.9375 22.4993C0.9375 22.8098 1.18875 23.0618 1.5 23.0625C1.575 23.0625 1.647 23.0475 1.713 23.0213L1.70925 23.0228L5.46225 21.5258C5.6625 21.4433 5.8035 21.255 5.8155 21.0323V21.0308C5.83125 20.7278 5.8515 20.4653 5.86875 20.2395C5.92725 19.485 5.96625 18.9855 5.62125 18.6105C5.24025 18.1973 4.6905 18.1943 3.36075 18.1883L3.36 18.189ZM4.74675 20.1533C4.7355 20.2928 4.7235 20.445 4.71225 20.613L2.50875 21.492L3.3795 19.314C4.0515 19.317 4.67925 19.32 4.767 19.3343C4.77525 19.428 4.77975 19.5368 4.77975 19.647C4.77975 19.8255 4.76775 20.001 4.7445 20.1735L4.74675 20.1533Z" fill="#00E5C4"/>
</g>
<defs>
<clipPath id="clip0_2158_8">
<rect width="24" height="24" fill="white"/>
</clipPath>
</defs>
</svg>
